<svg width="10" height="6" viewBox="0 0 10 6" fill="none" xmlns="http://www.w3.org/2000/svg">
<path d="M0.743591 5.01219C0.704529 4.97313 0.684998 4.91453 0.684998 4.85594C0.684998 4.77781 0.704529 4.71922 0.743591 4.68016L4.84515 0.598125C4.88422 0.539532 4.92328 0.52 5.0014 0.52C5.06 0.52 5.11859 0.539532 5.15765 0.598125L9.25922 4.68016C9.29828 4.71922 9.31781 4.77781 9.31781 4.85594C9.31781 4.91453 9.29828 4.97313 9.25922 5.01219L8.86859 5.40281C8.82953 5.44188 8.77094 5.48094 8.71234 5.48094C8.63422 5.48094 8.57562 5.44188 8.53656 5.40281L5.0014 1.86766L1.46625 5.40281C1.40765 5.44188 1.34906 5.48094 1.29047 5.48094C1.21234 5.48094 1.17328 5.44188 1.13422 5.40281L0.743591 5.01219Z" fill="#282828"/>
</svg>
