<svg width="60" height="60" viewBox="0 0 60 60" fill="none" xmlns="http://www.w3.org/2000/svg">
<path d="M55.1499 33.4V15.6C55.1499 10.5 51.0499 6.39999 45.9499 6.39999H20.9499C15.8499 6.39999 11.7499 10.5 11.7499 15.6V33.4C11.7499 38.5 15.8499 42.6 20.9499 42.6H28.5499H43.8499H45.9499C51.0499 42.6 55.1499 38.5 55.1499 33.4Z" fill="#4E7FCE"/>
<path d="M45.95 43.0999H20.95C15.55 43.0999 11.25 38.6999 11.25 33.3999V15.5999C11.25 10.1999 15.65 5.8999 20.95 5.8999H45.95C51.35 5.8999 55.65 10.2999 55.65 15.5999V33.3999C55.65 38.6999 51.25 43.0999 45.95 43.0999ZM20.95 6.7999C16.15 6.7999 12.25 10.6999 12.25 15.4999V33.2999C12.25 38.0999 16.15 41.9999 20.95 41.9999H45.95C50.75 41.9999 54.65 38.0999 54.65 33.2999V15.5999C54.65 10.7999 50.75 6.8999 45.95 6.8999L20.95 6.7999Z" fill="#3762CC"/>
<path d="M38.8499 11.9H13.8499C8.7499 11.9 4.6499 16 4.6499 21.1V38.9C4.6499 44 8.7499 48.1 13.8499 48.1H21.4499L20.8499 56.7C20.7499 57.5 21.7499 58.1 22.4499 57.6L36.7499 48.1H38.8499C43.9499 48.1 48.0499 44 48.0499 38.9V21.1C48.0499 16 43.9499 11.9 38.8499 11.9Z" fill="#A4C9FF"/>
<path d="M21.9501 58.2999C21.6501 58.2999 21.45 58.1999 21.15 58.0999C20.65 57.7999 20.35 57.2999 20.35 56.6999L20.85 48.5999H13.75C8.35005 48.5999 4.05005 44.1999 4.05005 38.8999V21.0999C4.05005 15.6999 8.45005 11.3999 13.75 11.3999H38.75C44.1501 11.3999 48.4501 15.7999 48.4501 21.0999V38.8999C48.4501 44.2999 44.05 48.5999 38.75 48.5999H36.85L22.65 57.9999C22.55 58.1999 22.25 58.2999 21.9501 58.2999ZM13.85 12.2999C9.05005 12.2999 5.15005 16.1999 5.15005 20.9999V38.7999C5.15005 43.5999 9.05005 47.4999 13.85 47.4999H21.4501C21.5501 47.4999 21.75 47.5999 21.85 47.6999C21.95 47.7999 21.9501 47.8999 21.9501 48.0999L21.35 56.6999C21.35 56.8999 21.45 57.0999 21.65 57.1999C21.85 57.2999 22.05 57.2999 22.25 57.1999L36.55 47.6999C36.65 47.5999 36.75 47.5999 36.85 47.5999H38.9501C43.75 47.5999 47.6501 43.6999 47.6501 38.8999V21.0999C47.6501 16.2999 43.75 12.3999 38.9501 12.3999L13.85 12.2999Z" fill="#3762CC"/>
<path d="M18.1499 25.3999C18.1499 25.3999 18.0499 25.3999 18.1499 25.3999V27.5999C18.5499 27.0999 19.0499 26.7999 19.7499 26.7999V26.1999C19.7499 25.8999 19.7499 25.6999 19.7499 25.4999L18.1499 25.3999Z" fill="#4E7FCE"/>
<path d="M34.45 25.3999H32.75C32.75 25.5999 32.75 25.8999 32.75 26.0999V26.6999C33.45 26.6999 33.95 26.9999 34.35 27.4999L34.45 25.3999Z" fill="#4E7FCE"/>
<path d="M30.2501 36.2H29.2501H22.2501C20.4501 36.2 18.9501 37.7 18.9501 39.5V41.2V41.7V42.5999H33.6501V41.7V41.2V39.5C33.6501 37.7 32.1501 36.2 30.2501 36.2Z" fill="#E0EBFC"/>
<path d="M26.2498 40C28.3498 40 30.0498 38.3 30.1498 36.2H29.2498H22.4498C22.4498 38.3 24.1498 40 26.2498 40Z" fill="#F08466"/>
<path d="M32.8501 26.7001V26.1001C32.8501 22.5001 29.9501 19.6001 26.3501 19.6001C22.7501 19.6001 19.8501 22.5001 19.8501 26.1001V26.7001C18.7501 26.7001 17.8501 27.6001 17.8501 28.7001C17.8501 29.8001 18.7501 30.7001 19.8501 30.7001C19.9501 30.7001 19.9501 30.7001 20.0501 30.7001C20.7501 33.6001 23.3501 35.7001 26.4501 35.7001C29.5501 35.7001 32.1501 33.6001 32.8501 30.7001C32.9501 30.7001 32.9501 30.7001 33.0501 30.7001C34.1501 30.7001 35.0501 29.8001 35.0501 28.7001C35.0501 27.6001 33.9501 26.7001 32.8501 26.7001Z" fill="#F9CFCF"/>
<path d="M23.05 29.9001C22.65 29.9001 22.25 29.5001 22.25 29.1001V27.8001C22.25 27.4001 22.65 27.0001 23.05 27.0001C23.45 27.0001 23.85 27.4001 23.85 27.8001V29.1001C23.85 29.6001 23.45 29.9001 23.05 29.9001Z" fill="#3762CC"/>
<path d="M29.45 29.9001C29.05 29.9001 28.65 29.5001 28.65 29.1001V27.8001C28.65 27.4001 29.05 27.0001 29.45 27.0001C29.85 27.0001 30.25 27.4001 30.25 27.8001V29.1001C30.25 29.6001 29.95 29.9001 29.45 29.9001Z" fill="#3762CC"/>
<path d="M26.2499 36.1C23.1499 36.1 20.3499 34.1 19.5499 31.1C18.2499 31 17.2499 30 17.2499 28.7C17.2499 27.5 18.1499 26.5 19.2499 26.3V26.1C19.2499 22.3 22.3499 19.2 26.2499 19.2C30.1499 19.2 33.2499 22.3 33.2499 26.1V26.3C34.4499 26.5 35.2499 27.5 35.2499 28.7C35.2499 30 34.2499 31.1 32.9499 31.1C32.1499 34.1 29.4499 36.1 26.2499 36.1ZM19.8499 30.2C20.0499 30.2 20.2499 30.3 20.2499 30.5C20.8499 33.3 23.3499 35.2 26.2499 35.2C29.1499 35.2 31.5499 33.3 32.2499 30.5C32.3499 30.3 32.5499 30.1 32.7499 30.2C32.8499 30.2 32.8499 30.2 32.9499 30.2C33.8499 30.2 34.5499 29.5 34.5499 28.7C34.5499 27.9 33.8499 27.2 32.9499 27.2C32.8499 27.2 32.7499 27.2 32.6499 27.1C32.5499 27 32.5499 26.9 32.5499 26.8V26.2C32.5499 22.9 29.8499 20.1 26.4499 20.1C23.0499 20.1 20.3499 22.8 20.3499 26.2V26.8C20.3499 26.9 20.3499 27 20.2499 27.1C20.1499 27.2 20.0499 27.2 19.9499 27.2C19.0499 27.2 18.3499 27.9 18.3499 28.7C18.3499 29.5 19.0499 30.2 19.9499 30.2C19.7499 30.2 19.7499 30.2 19.8499 30.2Z" fill="#3762CC"/>
<path d="M26.4499 32.7001H26.1499C25.9499 32.7001 25.7499 32.7001 25.6499 32.6001C25.4499 32.5001 25.2499 32.4001 25.0499 32.3001C24.8499 32.1001 24.7499 31.8001 24.7499 31.6001C24.7499 31.5001 24.8499 31.4001 24.9499 31.4001C25.0499 31.4001 25.1499 31.5001 25.1499 31.6001C25.1499 31.7001 25.2499 31.9001 25.3499 32.0001C25.4499 32.1001 25.5499 32.2001 25.7499 32.2001C25.8499 32.2001 25.9499 32.3001 26.1499 32.3001H26.4499C26.5499 32.3001 26.7499 32.3001 26.8499 32.2001C27.0499 32.1001 27.1499 32.1001 27.2499 32.0001C27.3499 31.9001 27.4499 31.7001 27.4499 31.6001C27.4499 31.5001 27.5499 31.4001 27.6499 31.4001C27.7499 31.4001 27.8499 31.5001 27.8499 31.6001C27.8499 31.9001 27.7499 32.1001 27.5499 32.3001C27.4499 32.4001 27.2499 32.6001 26.9499 32.6001C26.7499 32.6001 26.6499 32.7001 26.4499 32.7001Z" fill="#3762CC"/>
<path d="M24.95 25.4001H18.15C17.95 25.4001 17.75 25.2001 17.75 25.0001V23.3001C17.75 20.0001 20.35 17.4001 23.65 17.4001H26.75C27.65 17.4001 28.35 18.1001 28.35 19.0001V22.0001C28.35 23.8001 26.85 25.4001 24.95 25.4001Z" fill="#4E7FCE"/>
<path d="M34.45 25.4001H31.85C29.95 25.4001 28.35 23.9001 28.35 21.9001V18.9C28.35 18 29.05 17.3 29.95 17.3C32.65 17.3 34.85 19.5001 34.85 22.2001V25.0001C34.85 25.2001 34.65 25.4001 34.45 25.4001Z" fill="#4E7FCE"/>
<path d="M26.25 35.6999C25.15 35.6999 24.15 35.3999 23.25 34.9999V36.0999C23.25 37.6999 24.55 39.0999 26.25 39.0999C27.85 39.0999 29.25 37.7999 29.25 36.0999V34.9999C28.35 35.3999 27.35 35.6999 26.25 35.6999Z" fill="#F9CFCF"/>
<path d="M33.6499 43H18.9499C18.7499 43 18.5499 42.8 18.5499 42.6V39.6C18.5499 37.5 20.2499 35.8 22.3499 35.8H22.9499V35C22.9499 34.8 23.0499 34.7 23.1499 34.6C23.2499 34.5 23.4499 34.5 23.5499 34.6C24.4499 35 25.3499 35.3 26.3499 35.3C27.3499 35.3 28.2499 35.1 29.1499 34.6C29.2499 34.5 29.4499 34.5 29.5499 34.6C29.6499 34.7 29.7499 34.8 29.7499 35V35.8H30.2499C32.3499 35.8 34.0499 37.5 34.0499 39.6V42.6C34.0499 42.8 33.8499 43 33.6499 43ZM19.3499 42.2H33.2499V39.6C33.2499 38 31.9499 36.7 30.3499 36.7H29.2499C29.1499 36.7 29.0499 36.7 28.9499 36.6C28.8499 36.5 28.8499 36.4 28.8499 36.3V36.2V35.7C28.0499 36 27.1499 36.2 26.3499 36.2C25.4499 36.2 24.6499 36 23.8499 35.7V36.2V36.3C23.8499 36.4 23.8499 36.5 23.7499 36.6C23.6499 36.7 23.5499 36.7 23.4499 36.7H22.2499C20.6499 36.7 19.3499 38 19.3499 39.6V42.2Z" fill="#3762CC"/>
<path d="M24.9499 25.8H18.1499C17.6499 25.8 17.2499 25.4 17.2499 24.9V23.2C17.2499 19.7 20.0499 16.9 23.5499 16.9H26.6499C27.7499 16.9 28.7499 17.8 28.7499 19V22C28.8499 24 27.0499 25.8 24.9499 25.8ZM23.5499 17.7C20.5499 17.7 18.0499 20.2 18.0499 23.2V24.9H24.8499C26.5499 24.9 27.8499 23.5 27.8499 21.9V18.9C27.8499 18.2 27.3499 17.7 26.6499 17.7H23.5499Z" fill="#3762CC"/>
<path d="M34.45 25.7999H31.8499C29.7499 25.7999 27.95 24.0999 27.95 21.8999V18.8999C27.95 17.7999 28.8499 16.7999 30.0499 16.7999C32.9499 16.7999 35.3499 19.1999 35.3499 22.0999V24.8999C35.2499 25.3999 34.95 25.7999 34.45 25.7999ZM34.45 24.8999V25.2999V24.8999ZM29.95 17.6999C29.25 17.6999 28.75 18.1999 28.75 18.8999V21.8999C28.75 23.5999 30.15 24.8999 31.75 24.8999H34.3499V22.0999C34.4499 19.6999 32.45 17.6999 29.95 17.6999Z" fill="#3762CC"/>
</svg>
