<svg width="15" height="9" viewBox="0 0 15 9" fill="none" xmlns="http://www.w3.org/2000/svg">
<path d="M14.3299 3.88889C14.4271 4.08333 14.5 4.27778 14.5 4.47222C14.5 4.69097 14.4271 4.88542 14.3299 5.05556C13.625 6.24653 12.6771 7.19444 11.4861 7.875C10.2708 8.60417 8.93403 8.94444 7.5 8.94444C6.04167 8.94444 4.72917 8.60417 3.51389 7.875C2.29861 7.19444 1.35069 6.24653 0.670139 5.05556C0.548611 4.88542 0.5 4.69097 0.5 4.47222C0.5 4.27778 0.548611 4.08333 0.670139 3.88889C1.35069 2.72222 2.29861 1.77431 3.51389 1.06944C4.72917 0.364583 6.04167 0 7.5 0C8.93403 0 10.2708 0.364583 11.4861 1.06944C12.6771 1.77431 13.625 2.72222 14.3299 3.88889ZM7.5 7.77778C8.71528 7.77778 9.85764 7.48611 10.8785 6.87847C11.8993 6.29514 12.7257 5.49306 13.3333 4.47222C12.9444 3.86458 12.4826 3.32986 11.9479 2.84375C11.4132 2.35764 10.8056 1.96875 10.125 1.67708C10.5625 2.28472 10.8056 2.96528 10.8056 3.69444C10.8056 4.30208 10.6354 4.86111 10.3438 5.34722C10.0521 5.85764 9.63889 6.27083 9.15278 6.5625C8.64236 6.85417 8.08333 7 7.5 7C6.89236 7 6.33333 6.85417 5.84722 6.5625C5.33681 6.27083 4.92361 5.85764 4.63194 5.34722C4.34028 4.86111 4.19444 4.30208 4.19444 3.69444C4.19444 3.15972 4.31597 2.625 4.58333 2.13889C4.58333 2.52778 4.70486 2.84375 4.97222 3.11111C5.23958 3.37847 5.55556 3.5 5.94444 3.5C6.30903 3.5 6.625 3.37847 6.89236 3.11111C7.15972 2.84375 7.30556 2.52778 7.30556 2.13889C7.30556 1.77431 7.15972 1.45833 6.91667 1.19097C5.79861 1.28819 4.80208 1.62847 3.87847 2.21181C2.95486 2.79514 2.20139 3.54861 1.66667 4.47222C2.25 5.49306 3.07639 6.29514 4.09722 6.87847C5.11806 7.48611 6.26042 7.77778 7.5 7.77778Z" fill="white"/>
</svg>
