<svg width="60" height="28" viewBox="0 0 60 28" fill="none" xmlns="http://www.w3.org/2000/svg">
<path fill-rule="evenodd" clip-rule="evenodd" d="M4.94528 19.4361C2.71114 15.3991 2.41656 10.4669 4.77536 6.38205C5.65362 4.86133 6.83904 3.55914 8.26498 2.53465C13.0446 -0.899183 19.5079 -0.677948 24.4908 2.19833C26.6085 3.42076 28.4442 5.11479 29.8107 7.10767H27.7854C26.6895 5.75191 25.3094 4.55335 23.6756 3.61037C17.2897 -0.0757561 9.46012 1.53035 6.18757 7.19733C3.99439 10.9953 4.40481 15.6533 6.83625 19.4224L3.3806 25.4065L10.7313 23.4371C11.082 23.6817 11.4462 23.9142 11.8245 24.1326C18.2103 27.8187 26.0398 26.2128 29.3125 20.5457C31.0103 17.6053 31.1476 14.1495 29.9948 10.9899H31.7248C32.2765 12.7121 32.4993 14.545 32.3126 16.4157C32.1381 18.1624 31.6027 19.8401 30.7244 21.3608C29.8463 22.8818 28.6605 24.1844 27.2341 25.2089C22.4546 28.6422 15.9917 28.4205 11.0092 25.5444C10.8182 25.4342 10.6293 25.3201 10.4428 25.2022L0 28L4.94528 19.4361ZM36.496 8.18377C36.8151 8.7423 37.0979 9.32022 37.3419 9.91385H35.5575C35.2791 9.32082 34.9536 8.7423 34.5839 8.18377H36.496ZM30.486 8.18377C30.8052 8.7423 31.0882 9.32022 31.332 9.91385H29.5475C29.2694 9.32082 28.9437 8.7423 28.5739 8.18377H30.486ZM42.506 8.18377C42.8251 8.7423 43.1079 9.32022 43.3519 9.91385H41.5675C41.2891 9.32082 40.9636 8.7423 40.5938 8.18377H42.506Z" fill="#FE950D"/>
<path fill-rule="evenodd" clip-rule="evenodd" d="M9.7498 18.0413H8.03711L12.026 10.7577L15.9366 18.0413H14.6257H14.2576L12.026 13.8849L9.7498 18.0413Z" fill="#4E7FCE"/>
<path d="M16.5957 10.9534H19.6846C20.5893 10.9534 21.2914 11.1678 21.7911 11.5964C22.2907 12.0251 22.5407 12.6343 22.5407 13.4241C22.5407 14.2544 22.2907 14.899 21.7911 15.358C21.2914 15.8171 20.5893 16.0466 19.6846 16.0466H18.3984V18.0413H16.5957V10.9534ZM18.3984 12.371V14.6291H19.5936C19.9917 14.6291 20.2991 14.5311 20.515 14.3354C20.731 14.1396 20.8392 13.8561 20.8392 13.4848C20.8392 13.1203 20.731 12.8436 20.515 12.6546C20.2991 12.4656 19.9917 12.371 19.5936 12.371H18.3984Z" fill="#4E7FCE"/>
<path d="M23.4816 10.9534H26.5705C27.4752 10.9534 28.1773 11.1678 28.6769 11.5964C29.1766 12.0251 29.4264 12.6343 29.4264 13.4241C29.4264 14.2544 29.1766 14.899 28.6769 15.358C28.1773 15.8171 27.4752 16.0466 26.5705 16.0466H25.2843V18.0413H23.4816V10.9534ZM25.2843 12.371V14.6291H26.4794C26.8776 14.6291 27.1848 14.5311 27.4009 14.3354C27.6169 14.1396 27.725 13.8561 27.725 13.4848C27.725 13.1203 27.6169 12.8436 27.4009 12.6546C27.1848 12.4656 26.8776 12.371 26.4794 12.371H25.2843Z" fill="#4E7FCE"/>
<path d="M40.1319 18.0413H38.5418L35.2807 13.6772V18.0413H33.5895V10.9534H35.1794L38.4507 15.3276V10.9534H40.1319V18.0413Z" fill="#4E7FCE"/>
<path d="M43.3515 18.0413H41.5488V10.9534H43.3515V18.0413Z" fill="#4E7FCE"/>
<path d="M48.1319 10.893C49.2323 10.893 50.1471 11.2356 50.8764 11.9207C51.6057 12.6059 51.9702 13.4614 51.9702 14.4876C51.9702 15.5203 51.6039 16.3843 50.8714 17.0797C50.1388 17.7749 49.2257 18.1226 48.1319 18.1226C47.0379 18.1226 46.1266 17.7766 45.3973 17.0847C44.6683 16.3928 44.3035 15.527 44.3035 14.4876C44.3035 13.4547 44.6683 12.5974 45.3973 11.9156C46.1266 11.2338 47.0379 10.893 48.1319 10.893ZM48.1521 12.4017C47.5985 12.4017 47.1259 12.6025 46.7343 13.0041C46.3426 13.4058 46.1468 13.9036 46.1468 14.4976C46.1468 15.0917 46.3444 15.5929 46.7394 16.0013C47.1344 16.4097 47.6053 16.6139 48.1521 16.6139C48.6989 16.6139 49.1632 16.4097 49.5446 16.0013C49.9261 15.5929 50.1169 15.0917 50.1169 14.4976C50.1169 13.9036 49.9261 13.4058 49.5446 13.0041C49.1632 12.6025 48.6989 12.4017 48.1521 12.4017Z" fill="#4E7FCE"/>
<path d="M59.4649 18.0413H57.8749L54.6137 13.6772V18.0413H52.9225V10.9534H54.5126L57.7837 15.3276V10.9534H59.4649V18.0413Z" fill="#4E7FCE"/>
<path fill-rule="evenodd" clip-rule="evenodd" d="M11.2444 18.0413H10.6758L12.0001 15.6232L13.2983 18.0413H12.8631H12.7409H11.2444Z" fill="#FE950D"/>
</svg>
