<svg width="22" height="16" viewBox="0 0 22 16" fill="none" xmlns="http://www.w3.org/2000/svg">
<path d="M12.2536 6.74483C11.9075 6.39876 11.4555 6.22926 11.0035 6.22926C10.5515 6.22926 10.0995 6.39876 9.75341 6.74483C9.42147 7.07677 9.23784 7.52171 9.23784 7.98785C9.23784 8.45398 9.42147 8.89892 9.75341 9.23087C10.4455 9.91594 11.5614 9.91594 12.2536 9.23087C12.5855 8.89892 12.7691 8.45398 12.7691 7.98785C12.7691 7.52171 12.5855 7.07677 12.2536 6.74483Z" fill="white"/>
<path d="M16.3076 3.43949C16.1593 3.29117 15.9686 3.21348 15.7638 3.21348C15.559 3.21348 15.3612 3.29117 15.22 3.43949C14.9163 3.74318 14.9163 4.2305 15.22 4.53419C16.1452 5.45939 16.6537 6.68122 16.6537 7.9878C16.6537 9.29438 16.1452 10.5162 15.22 11.4414C15.0717 11.5897 14.994 11.7804 14.994 11.9852C14.994 12.19 15.0717 12.3878 15.22 12.5291C15.3683 12.6774 15.559 12.7551 15.7709 12.7551C15.9757 12.7551 16.1734 12.6774 16.3147 12.5291C17.5295 11.3143 18.2004 9.69695 18.2004 7.98074C18.2004 6.26453 17.5295 4.65425 16.3076 3.43949Z" fill="white"/>
<path d="M18.7794 0.226003C18.6311 0.0776886 18.4404 0 18.2356 0C18.0308 0 17.833 0.0776886 17.6847 0.226003C17.381 0.529695 17.381 1.01701 17.6847 1.32071C19.4715 3.10048 20.4532 5.46645 20.4532 7.9878C20.4532 10.5091 19.4715 12.8751 17.6847 14.6549C17.381 14.9586 17.381 15.4459 17.6847 15.7496C17.833 15.8979 18.0237 15.9756 18.2356 15.9756C18.4404 15.9756 18.6381 15.8979 18.7794 15.7496C20.8558 13.6732 22 10.9188 22 7.9878C22 5.05682 20.8558 2.30241 18.7794 0.226003Z" fill="white"/>
<path d="M7.01316 3.99028C7.01316 3.78546 6.93547 3.58771 6.78716 3.44646C6.63884 3.29814 6.44815 3.22045 6.24334 3.22045C6.03852 3.22045 5.84077 3.29814 5.69952 3.44646C4.48475 4.66122 3.8138 6.27856 3.8138 7.99477C3.8138 9.71098 4.48475 11.3283 5.69952 12.5431C5.84783 12.6914 6.03852 12.7691 6.24334 12.7691C6.44815 12.7691 6.64591 12.6914 6.78716 12.5431C6.93547 12.3948 7.01316 12.2041 7.01316 11.9993C7.01316 11.7945 6.93547 11.5967 6.78716 11.4554C5.86196 10.5232 5.34639 9.29429 5.34639 7.98771C5.34639 6.68113 5.8549 5.4593 6.7801 4.5341C6.92841 4.38578 7.01316 4.19509 7.01316 3.99028Z" fill="white"/>
<path d="M1.54671 7.9878C1.54671 5.46645 2.52841 3.10048 4.31525 1.32071C4.61894 1.01701 4.61894 0.529695 4.31525 0.226003C4.16693 0.0776886 3.97624 0 3.77143 0C3.56661 0 3.36886 0.0776886 3.22761 0.226003C1.14414 2.30241 0 5.05682 0 7.9878C0 10.9188 1.14414 13.6803 3.22055 15.7496C3.36886 15.8979 3.55955 15.9756 3.76437 15.9756C3.96918 15.9756 4.16693 15.8979 4.30819 15.7496C4.61188 15.4459 4.61188 14.9586 4.30819 14.6549C2.52841 12.8751 1.54671 10.5091 1.54671 7.9878Z" fill="white"/>
</svg>
