<svg width="60" height="60" viewBox="0 0 60 60" fill="none" xmlns="http://www.w3.org/2000/svg">
<path d="M50.2 10.7H9.80005C9.00005 10.7 8.30005 11.4 8.30005 12.2V40.9V47.8C8.30005 48.6 9.00005 49.3 9.80005 49.3H50.3C51.1 49.3 51.8 48.6 51.8 47.8V40.9V12.2C51.8 11.4 51.1 10.7 50.2 10.7Z" fill="#A4C9FF"/>
<path d="M8.19995 12.2V19.1H51.6999V12.2C51.6999 11.4 51 10.7 50.1999 10.7H9.79995C8.89995 10.7 8.19995 11.4 8.19995 12.2Z" fill="#4E7FCE"/>
<path d="M36.7 16.6H34.6C34.3 16.6 34 16.3 34 16V13.9C34 13.6 34.3 13.3 34.6 13.3H36.7C37 13.3 37.3 13.6 37.3 13.9V16C37.3 16.3 37 16.6 36.7 16.6Z" fill="#F08466"/>
<path d="M42.4 16.6H40.2999C39.9999 16.6 39.7 16.3 39.7 16V13.9C39.7 13.6 39.9999 13.3 40.2999 13.3H42.4C42.7 13.3 43 13.6 43 13.9V16C43 16.3 42.8 16.6 42.4 16.6Z" fill="#F08466"/>
<path d="M48.2 16.6H46.1C45.8 16.6 45.5 16.3 45.5 16V13.9C45.5 13.6 45.8 13.3 46.1 13.3H48.2C48.5 13.3 48.8 13.6 48.8 13.9V16C48.8 16.3 48.5 16.6 48.2 16.6Z" fill="#F08466"/>
<path d="M50.2 49.7H9.80002C8.70002 49.7 7.90002 48.8 7.90002 47.8V12.2C7.90002 11.1 8.80002 10.3 9.80002 10.3H50.3C51.4 10.3 52.2 11.2 52.2 12.2V47.8C52.2 48.9 51.3 49.7 50.2 49.7ZM9.80002 11.1C9.20002 11.1 8.70002 11.6 8.70002 12.2V47.8C8.70002 48.4 9.20002 48.9 9.80002 48.9H50.3C50.9 48.9 51.4 48.4 51.4 47.8V12.2C51.4 11.6 50.9 11.1 50.3 11.1H9.80002Z" fill="#3762CC"/>
<path d="M51.8 19.5H8.20005C8.00005 19.5 7.80005 19.3 7.80005 19.1V12.2C7.80005 11.1 8.70005 10.3 9.70005 10.3H50.2C51.3 10.3 52.1 11.2 52.1 12.2V19.1C52.2 19.3 52 19.5 51.8 19.5ZM8.60005 18.6H51.3V12.2C51.3 11.6 50.8 11.1 50.2 11.1H9.80005C9.20005 11.1 8.70005 11.6 8.70005 12.2V18.6H8.60005Z" fill="#3762CC"/>
<path d="M34.1001 41.2H33.0001H26.0001C24.1001 41.2 22.6001 42.7 22.6001 44.6V46.3V46.8V47.7H37.4001V46.8V46.3V44.6C37.5001 42.7 36.0001 41.2 34.1001 41.2Z" fill="#E0EBFC"/>
<path d="M30.0999 45C32.1999 45 33.8999 43.3 33.9999 41.2H33.0999H26.2C26.3 43.3 28 45 30.0999 45Z" fill="#F08466"/>
<path d="M36.7 31.7V31.1C36.7 27.5 33.8 24.6 30.1 24.6C26.5 24.6 23.5 27.5 23.5 31.1V31.7C22.4 31.7 21.5 32.6 21.5 33.7C21.5 34.8 22.4 35.7 23.5 35.7C23.6 35.7 23.6 35.7 23.7 35.7C24.4 38.6 27 40.7 30.1 40.7C33.2 40.7 35.8 38.6 36.5 35.7C36.6 35.7 36.6 35.7 36.7 35.7C37.8 35.7 38.7 34.8 38.7 33.7C38.7 32.6 37.8 31.7 36.7 31.7Z" fill="#F9CFCF"/>
<path d="M26.8 34.9C26.4 34.9 26 34.5 26 34.1V32.8C26 32.4 26.4 32 26.8 32C27.2 32 27.6 32.4 27.6 32.8V34.1C27.6 34.5 27.3 34.9 26.8 34.9Z" fill="#3762CC"/>
<path d="M33.3 34.9C32.9 34.9 32.5 34.5 32.5 34.1V32.8C32.5 32.4 32.9 32 33.3 32C33.7 32 34.1 32.4 34.1 32.8V34.1C34.1 34.5 33.8 34.9 33.3 34.9Z" fill="#3762CC"/>
<path d="M30.1 41.1C26.9 41.1 24.2 39.1 23.4 36.1C22.1 36 21 34.9 21 33.7C21 32.5 21.9 31.5 23 31.3V31.1C23 27.3 26.1 24.2 30 24.2C33.9 24.2 37 27.3 37 31.1V31.3C38.2 31.5 39 32.5 39 33.7C39 35 38 36 36.7 36.1C36 39 33.2 41.1 30.1 41.1ZM23.7 35.2C23.9 35.2 24.1 35.3 24.1 35.5C24.8 38.3 27.2 40.2 30.1 40.2C33 40.2 35.5 38.3 36.1 35.5C36.1 35.3 36.3 35.2 36.5 35.2C36.6 35.2 36.6 35.2 36.7 35.2C37.6 35.2 38.3 34.5 38.3 33.6C38.3 32.7 37.6 32 36.7 32C36.6 32 36.5 32 36.4 31.9C36.3 31.8 36.3 31.7 36.3 31.6V31C36.3 27.6 33.5 24.9 30.1 24.9C26.7 24.9 23.9 27.6 23.9 31V31.6C23.9 31.7 23.9 31.8 23.8 31.9C23.7 32 23.6 32 23.5 32C22.6 32 21.9 32.7 21.9 33.6C21.9 34.5 22.6 35.2 23.5 35.2C23.5 35.2 23.6 35.2 23.7 35.2C23.6 35.2 23.7 35.2 23.7 35.2Z" fill="#3762CC"/>
<path d="M30.2001 37.8H29.9001C29.7 37.8 29.5 37.8 29.3 37.7C29 37.6 28.8001 37.5 28.7001 37.3C28.5001 37.1 28.3 36.8 28.3 36.5C28.3 36.3 28.5001 36.1 28.7001 36.1C28.9001 36.1 29.1001 36.3 29.1001 36.5C29.1001 36.6 29.2001 36.7 29.2001 36.8C29.3001 36.9 29.4001 36.9 29.5001 37C29.6001 37 29.7 37 29.8 37H30.1001C30.2001 37 30.3001 37 30.4001 37C30.5001 37 30.6001 36.9 30.7001 36.8C30.8001 36.7 30.8001 36.7 30.8001 36.5C30.8001 36.3 31.0001 36.1 31.2001 36.1C31.4001 36.1 31.6001 36.3 31.6001 36.5C31.6001 36.8 31.5001 37.1 31.2001 37.3C31.0001 37.5 30.8001 37.6 30.6001 37.7C30.6001 37.8 30.4001 37.8 30.2001 37.8Z" fill="#3762CC"/>
<path d="M28.7 30.5H21.9C21.7 30.5 21.5 30.3 21.5 30.1V28.4C21.5 25.1 24.2 22.5 27.4 22.5H30.6C31.5 22.5 32.2 23.2 32.2 24.1V27.1C32.2 29 30.6 30.5 28.7 30.5Z" fill="#4E7FCE"/>
<path d="M38.2999 30.5H35.7C33.8 30.5 32.2 28.9 32.2 27V24C32.2 23.1 32.8999 22.4 33.7999 22.4C36.4999 22.4 38.7 24.6 38.7 27.3V30.1C38.7 30.4 38.4999 30.5 38.2999 30.5Z" fill="#4E7FCE"/>
<path d="M30.1001 40.7C29.0001 40.7 28.0001 40.4 27.1001 40V41.1C27.1001 42.7 28.4001 44.1 30.1001 44.1C31.7001 44.1 33.1001 42.8 33.1001 41.1V40C32.2001 40.4 31.2001 40.7 30.1001 40.7Z" fill="#F9CFCF"/>
<path d="M37.5 48H22.7001C22.5001 48 22.3 47.8 22.3 47.6V44.6C22.3 42.5 24 40.8 26.1 40.8H26.7V40C26.7 39.9 26.8 39.7 26.9 39.6C27 39.5 27.2 39.5 27.3 39.6C28.2 40 29.1 40.3 30.1 40.3C31.1 40.3 32 40.1 32.9001 39.6C33 39.5 33.2 39.5 33.3 39.6C33.4 39.7 33.5 39.8 33.5 40V40.8H34.1C36.2 40.8 37.9 42.5 37.9 44.6V47.6C37.9 47.8 37.7 48 37.5 48ZM23.1 47.2H37.1V44.6C37.1 43 35.8 41.7 34.2 41.7H33.1C33 41.7 32.9 41.7 32.8 41.6C32.7 41.5 32.7 41.4 32.7 41.3V41.2V40.7C31.9 41 31 41.2 30.1 41.2C29.2 41.2 28.3 41 27.5 40.7V41.2V41.3C27.5 41.4 27.5 41.5 27.4 41.6C27.3 41.7 27.2 41.7 27.1 41.7H26C24.4 41.7 23.1 43 23.1 44.6V47.2Z" fill="#3762CC"/>
<path d="M28.7001 31H21.9001C21.4001 31 21.1001 30.6 21.1001 30.2V28.5C21.1001 25 23.9001 22.2 27.4001 22.2H30.6001C31.7001 22.2 32.6001 23.1 32.6001 24.2V27.2C32.6001 29.2 30.9001 31 28.7001 31ZM27.4001 22.9C24.4001 22.9 21.9001 25.4 21.9001 28.4V30.1H28.7001C30.4001 30.1 31.8001 28.7 31.8001 27V24C31.8001 23.3 31.3001 22.8 30.6001 22.8L27.4001 22.9Z" fill="#3762CC"/>
<path d="M38.3001 31H35.7001C33.6001 31 31.8 29.3 31.8 27.1V24.1C31.8 23 32.7 22.1 33.8 22.1C36.7001 22.1 39.1001 24.5 39.1001 27.4V30.2C39.1001 30.6 38.7001 31 38.3001 31ZM33.8 22.9C33.1 22.9 32.6 23.4 32.6 24.1V27.1C32.6 28.8 34.0001 30.2 35.7001 30.2H38.3001V27.4C38.3001 24.9 36.3001 22.9 33.8 22.9Z" fill="#3762CC"/>
<path d="M38.1 29.4H39.5V29.2C39.5 24.4 35.6 20.5 30.8 20.5H29.2C24.4 20.5 20.5 24.4 20.5 29.2V29.4H22V29.2C22 25.2 25.3 21.9 29.2 21.9H30.8C34.8 21.9 38 25.2 38 29.2L38.1 29.4Z" fill="#E0EBFC"/>
<path d="M39.6 29.8H38.2C38 29.8 37.8 29.6 37.8 29.4V29.2C37.8 25.4 34.7 22.3 31 22.3H29.4C25.6 22.3 22.6 25.4 22.6 29.2V29.4C22.6 29.6 22.4 29.8 22.2 29.8H20.8C20.6 29.8 20.4 29.6 20.4 29.4V29.2C20.4 24.2 24.5 20.1 29.5 20.1H31.1C36.1 20.1 40.2 24.2 40.2 29.2V29.4C40 29.6 39.8 29.8 39.6 29.8ZM38.5 29H39.1C39 24.5 35.3 20.9 30.8 20.9H29.2C24.7 20.9 21 24.5 20.9 29H21.5C21.6 24.8 25 21.5 29.2 21.5H30.8C35 21.5 38.4 24.8 38.5 29Z" fill="#3762CC"/>
<path d="M37.9 36.1H39.8C40.1 36.1 40.4 35.8 40.4 35.5V30.2C40.4 29.9 40.1 29.6 39.8 29.6H37.9V36.1Z" fill="#F08466"/>
<path d="M37.9 29.8H39.8V28.4C39.8 28.3 39.7 28.2 39.6 28.2H38.2C38.1 28.2 38 28.3 38 28.4V29.8H37.9Z" fill="#F08466"/>
<path d="M39.8 36.5H37.9C37.7 36.5 37.5 36.3 37.5 36.1V29.7C37.5 29.5 37.7 29.3 37.9 29.3H39.8C40.3 29.3 40.8 29.7 40.8 30.3V35.6C40.8 36.1 40.3 36.5 39.8 36.5ZM38.3 35.7H39.8C39.9 35.7 40 35.6 40 35.5V30.2C40 30.1 39.9 30 39.8 30H38.3V35.7Z" fill="#3762CC"/>
<path d="M22.1 36.1H20.2C19.9 36.1 19.6 35.8 19.6 35.5V30.2C19.6 29.9 19.9 29.6 20.2 29.6H22.1V36.1Z" fill="#F08466"/>
<path d="M22.2001 29.8H20.3V28.4C20.3 28.3 20.4 28.2 20.5 28.2H22C22.1 28.2 22.2001 28.3 22.2001 28.4V29.8Z" fill="#F08466"/>
<path d="M22.1 36.5H20.2C19.7 36.5 19.2 36.1 19.2 35.5V30.2C19.2 29.7 19.6 29.2 20.2 29.2H22.1C22.3 29.2 22.5 29.4 22.5 29.6V36C22.5 36.4 22.3 36.5 22.1 36.5ZM20.2 30.2C20.1 30.2 20 30.3 20 30.4V35.7C20 35.8 20.1 35.9 20.2 35.9H21.7V30.3H20.2V30.2Z" fill="#3762CC"/>
<path d="M22.9 36.1H22.1V29.7H22.9C23.3 29.7 23.6 30 23.6 30.4V35.4C23.6 35.8 23.3 36.1 22.9 36.1Z" fill="#E0EBFC"/>
<path d="M37.9 36.1H37.1C36.7 36.1 36.4 35.8 36.4 35.4V30.4C36.4 30 36.7 29.7 37.1 29.7H37.9V36.1Z" fill="#E0EBFC"/>
<path d="M22.8999 36.5H22.1C21.9 36.5 21.7 36.3 21.7 36.1V29.7C21.7 29.5 21.9 29.3 22.1 29.3H22.8999C23.4999 29.3 23.9999 29.8 23.9999 30.4V35.4C24.0999 36 23.5999 36.5 22.8999 36.5ZM22.5 35.7H22.8999C23.0999 35.7 23.2 35.6 23.2 35.4V30.4C23.2 30.2 23.0999 30.1 22.8999 30.1H22.5V35.7Z" fill="#3762CC"/>
<path d="M37.9 36.5H37.1C36.5 36.5 36 36 36 35.4V30.4C36 29.8 36.5 29.3 37.1 29.3H37.9C38.1 29.3 38.3 29.5 38.3 29.7V36.1C38.3 36.4 38.1 36.5 37.9 36.5ZM37.1 30.2C36.9 30.2 36.8 30.3 36.8 30.5V35.5C36.8 35.7 36.9 35.8 37.1 35.8H37.5V30.2H37.1Z" fill="#3762CC"/>
<path d="M39.7 30.2H37.8C37.6 30.2 37.4 30 37.4 29.8V28.4C37.4 28 37.7 27.8 38 27.8H39.4C39.8 27.8 40 28.1 40 28.4V29.8C40.2 30 40 30.2 39.7 30.2ZM38.3 29.3H39.4V28.4H38.3V29.3Z" fill="#3762CC"/>
<path d="M22.2 30.2H20.3C20.1 30.2 19.9 30 19.9 29.8V28.4C19.9 28 20.2 27.8 20.5 27.8H22C22.4 27.8 22.6 28.1 22.6 28.4V29.8C22.6 30 22.4 30.2 22.2 30.2ZM20.7 29.3H21.8V28.4H20.7V29.3Z" fill="#3762CC"/>
<path d="M54.1 31.2H43.7C43 31.2 42.5 30.6 42.5 30V23C42.5 22.3 43.1 21.8 43.7 21.8H54.1C54.8 21.8 55.3 22.4 55.3 23V30C55.3 30.7 54.8 31.2 54.1 31.2Z" fill="#E0EBFC"/>
<path d="M55.3 24.5V26.3V28.1L58.7001 29.7C58.9001 29.8 59.1 29.6 59.1 29.4V26.2V23C59.1 22.8 58.9001 22.6 58.7001 22.7L55.3 24.5Z" fill="#F08466"/>
<path d="M54.1 31.6H43.7C42.8 31.6 42 30.9 42 29.9V22.9C42 22 42.7 21.2 43.7 21.2H54.1C55 21.2 55.8 21.9 55.8 22.9V29.9C55.7 30.9 55 31.6 54.1 31.6ZM43.7 22.1C43.2 22.1 42.9 22.5 42.9 22.9V29.9C42.9 30.4 43.3 30.7 43.7 30.7H54.1C54.6 30.7 54.9 30.3 54.9 29.9V22.9C54.9 22.4 54.5 22.1 54.1 22.1H43.7Z" fill="#3762CC"/>
<path d="M58.8 30.2C58.7 30.2 58.6 30.2 58.5 30.1L55.1 28.5C55 28.4 54.9 28.3 54.9 28.1V24.4C54.9 24.2 55 24.1 55.1 24L58.5 22.4C58.7 22.3 59 22.3 59.2 22.4C59.4 22.5 59.5 22.8 59.5 23V29.4C59.5 29.6 59.4 29.9 59.2 30C59.1 30.2 59 30.2 58.8 30.2ZM55.7 27.9L58.7 29.3V23.3L55.7 24.7V27.9Z" fill="#3762CC"/>
<path d="M45.2999 27.6H44.1999V25.7C44.1999 25.6 44.1999 25.5 44.0999 25.4C43.9999 25.3 43.8999 25.3 43.7999 25.3C43.6999 25.3 43.5999 25.3 43.4999 25.4C43.3999 25.5 43.3999 25.6 43.3999 25.7V27.8C43.3999 27.9 43.3999 28.1 43.4999 28.1C43.5999 28.2 43.6999 28.2 43.7999 28.2H45.2999C45.3999 28.2 45.4999 28.2 45.5999 28.1C45.6999 28 45.6999 28 45.6999 27.9C45.6999 27.8 45.6999 27.7 45.5999 27.7C45.4999 27.7 45.3999 27.6 45.2999 27.6Z" fill="#F08466"/>
<path d="M46.5 25.3C46.4 25.3 46.3 25.3 46.2 25.4C46.1 25.5 46.1 25.6 46.1 25.7V27.9C46.1 28 46.1 28.1 46.2 28.2C46.3 28.3 46.4 28.3 46.5 28.3C46.6 28.3 46.7 28.3 46.8 28.2C46.9 28.1 46.9 28 46.9 27.9V25.7C46.9 25.6 46.9 25.5 46.8 25.4C46.7 25.3 46.6 25.3 46.5 25.3Z" fill="#F08466"/>
<path d="M49.9 25.3C49.8 25.3 49.8 25.3 49.7 25.3C49.6 25.3 49.5 25.3 49.5 25.4C49.4 25.4 49.4 25.5 49.4 25.5C49.4 25.5 49.4 25.6 49.3 25.7L48.7 27.3L48.1 25.7C48.1 25.6 48 25.5 48 25.4C47.9 25.3 47.8 25.3 47.7 25.3C47.6001 25.3 47.5001 25.3 47.4001 25.4C47.3001 25.5 47.3 25.5 47.3 25.6V25.7V25.8V25.9L48 27.7C48 27.8 48.1 27.8 48.1 27.9C48.1 28 48.2 28 48.2 28.1C48.2 28.2 48.3 28.2 48.4 28.2C48.5 28.2 48.5 28.3 48.6 28.3C48.7 28.3 48.8 28.3 48.8 28.2C48.9 28.2 48.9 28.1 49 28.1C49 28 49.1 28 49.1 27.9C49.1 27.8 49.2 27.8 49.2 27.7L49.9 25.9V25.8V25.7V25.6C49.9 25.5 49.9 25.5 49.8 25.4C50 25.4 50 25.4 49.9 25.3Z" fill="#F08466"/>
<path d="M52.9 27.7C52.8 27.6 52.7 27.6 52.6 27.6H51.3V27H52.5C52.6 27 52.7 27 52.8 26.9C52.9 26.8 52.9 26.8 52.9 26.7C52.9 26.6 52.9 26.5 52.8 26.5C52.7 26.4 52.7 26.4 52.5 26.4H51.3V25.9H52.6C52.7 25.9 52.8 25.9 52.9 25.8C53 25.7 53 25.7 53 25.6C53 25.5 53 25.4 52.9 25.4C52.8 25.3 52.7 25.3 52.6 25.3H51C50.9 25.3 50.8 25.3 50.8 25.3C50.7 25.3 50.7 25.4 50.6 25.4C50.6 25.5 50.6 25.5 50.6 25.6V27.7C50.6 27.8 50.6 28 50.7 28C50.8 28.1 50.9 28.1 51 28.1H52.6C52.7 28.1 52.8 28.1 52.9 28C53 28.1 53 28.1 53 28C53 27.9 53 27.8 52.9 27.7Z" fill="#F08466"/>
<path d="M53.9 25.5C54.1 25.5 54.3 25.3 54.3 25.1C54.3 24.9 54.1 24.7 53.9 24.7C53.7 24.7 53.5 24.9 53.5 25.1C53.5 25.3 53.7 25.5 53.9 25.5Z" fill="#F08466"/>
</svg>
